<svg viewBox="0 0 1000 700" xmlns="http://www.w3.org/2000/svg" width="1000" height="700">
  <defs>
    <filter id="parchment" x="-5%" y="-5%" width="110%" height="110%">
      <feTurbulence type="fractalNoise" baseFrequency="0.65" numOctaves="3" stitchTiles="stitch" result="noise"/>
      <feColorMatrix type="saturate" values="0" in="noise" result="grayNoise"/>
      <feBlend in="SourceGraphic" in2="grayNoise" mode="multiply" result="blended"/>
      <feComponentTransfer in="blended">
        <feFuncR type="linear" slope="0.9" intercept="0.05"/>
        <feFuncG type="linear" slope="0.85" intercept="0.04"/>
        <feFuncB type="linear" slope="0.7" intercept="0.02"/>
      </feComponentTransfer>
    </filter>
    <filter id="wobble" x="-2%" y="-2%" width="104%" height="104%">
      <feTurbulence type="turbulence" baseFrequency="0.012" numOctaves="4" seed="8" result="turbulence"/>
      <feDisplacementMap in="SourceGraphic" in2="turbulence" scale="5" xChannelSelector="R" yChannelSelector="G"/>
    </filter>
    <filter id="shadow" x="-10%" y="-10%" width="120%" height="120%">
      <feDropShadow dx="3" dy="4" stdDeviation="6" flood-color="#1a0a00" flood-opacity="0.5"/>
    </filter>
    <radialGradient id="vignette" cx="50%" cy="50%" r="70%">
      <stop offset="55%" stop-color="transparent"/>
      <stop offset="100%" stop-color="#0d0806" stop-opacity="0.75"/>
    </radialGradient>
    <radialGradient id="oceanGrad" cx="40%" cy="35%" r="75%">
      <stop offset="0%" stop-color="#1e3d5c"/>
      <stop offset="100%" stop-color="#091520"/>
    </radialGradient>
    <linearGradient id="parchBase" x1="0%" y1="0%" x2="100%" y2="100%">
      <stop offset="0%" stop-color="#f0e8cc"/>
      <stop offset="50%" stop-color="#e8d8b0"/>
      <stop offset="100%" stop-color="#d8c898"/>
    </linearGradient>
    <linearGradient id="dreadGrad" x1="0%" y1="0%" x2="100%" y2="100%">
      <stop offset="0%" stop-color="#ddeaf5"/>
      <stop offset="100%" stop-color="#b8ccd8"/>
    </linearGradient>
    <linearGradient id="veilGrad" x1="0%" y1="0%" x2="100%" y2="100%">
      <stop offset="0%" stop-color="#3a6a3a"/>
      <stop offset="100%" stop-color="#1e4a1e"/>
    </linearGradient>
    <linearGradient id="ashenGrad" x1="0%" y1="0%" x2="100%" y2="100%">
      <stop offset="0%" stop-color="#9a9088"/>
      <stop offset="100%" stop-color="#6a6058"/>
    </linearGradient>
    <linearGradient id="aranthorGrad" x1="0%" y1="0%" x2="100%" y2="100%">
      <stop offset="0%" stop-color="#ccc088"/>
      <stop offset="100%" stop-color="#b8aa70"/>
    </linearGradient>
    <linearGradient id="darianGrad" x1="0%" y1="0%" x2="100%" y2="100%">
      <stop offset="0%" stop-color="#8898aa"/>
      <stop offset="100%" stop-color="#607080"/>
    </linearGradient>
    <linearGradient id="sapphireGrad" x1="0%" y1="0%" x2="100%" y2="100%">
      <stop offset="0%" stop-color="#4a8898"/>
      <stop offset="100%" stop-color="#2a6878"/>
    </linearGradient>
  </defs>

  <!-- Ocean base -->
  <rect width="1000" height="700" fill="url(#oceanGrad)"/>

  <!-- === CONTINENT LANDMASS === -->
  <g filter="url(#shadow)">
    <path d="M 65,90 L 278,75 L 600,72 L 660,72 L 810,90 L 910,110 L 920,300 L 910,490 L 885,580 L 850,645 L 700,670 L 540,685 L 370,682 L 220,660 L 112,625 L 65,570 L 55,420 L 65,280 Z"
      fill="url(#parchBase)" stroke="#8b6914" stroke-width="2" filter="url(#wobble)"/>
  </g>
  <!-- Parchment texture overlay on land -->
  <path d="M 65,90 L 278,75 L 600,72 L 660,72 L 810,90 L 910,110 L 920,300 L 910,490 L 885,580 L 850,645 L 700,670 L 540,685 L 370,682 L 220,660 L 112,625 L 65,570 L 55,420 L 65,280 Z"
    fill="url(#parchment)" opacity="0.42"/>

  <!-- === REGION FILLS === -->

  <!-- DREADSPIRE PEAKS (NW) -->
  <path d="M 65,90 L 278,75 L 278,325 L 65,325 Z"
    fill="url(#dreadGrad)" opacity="0.72" filter="url(#wobble)"/>

  <!-- VEILWOOD (N center-left) -->
  <path d="M 278,75 L 600,72 L 628,200 L 600,340 L 278,325 Z"
    fill="url(#veilGrad)" opacity="0.60" filter="url(#wobble)"/>

  <!-- ASHEN MARCHES (W center) -->
  <path d="M 65,325 L 278,325 L 308,455 L 300,610 L 122,640 L 65,575 Z"
    fill="url(#ashenGrad)" opacity="0.68" filter="url(#wobble)"/>

  <!-- ARANTHOR (center kingdom) -->
  <path d="M 278,325 L 600,340 L 628,200 L 625,175 L 625,605 L 410,652 L 300,610 L 308,455 Z"
    fill="url(#aranthorGrad)" opacity="0.60" filter="url(#wobble)"/>

  <!-- DARIAN EMPIRE (E) -->
  <path d="M 625,175 L 810,90 L 910,110 L 920,300 L 910,490 L 885,580 L 850,645 L 675,658 L 625,605 Z"
    fill="url(#darianGrad)" opacity="0.58" filter="url(#wobble)"/>

  <!-- SAPPHIRE COAST (S strip) -->
  <path d="M 300,610 L 625,605 L 675,658 L 850,645 L 700,670 L 540,685 L 370,682 L 220,660 L 122,640 Z"
    fill="url(#sapphireGrad)" opacity="0.65" filter="url(#wobble)"/>

  <!-- === SHATTERED ISLES (NE islands in sea) === -->
  <ellipse cx="808" cy="88" rx="88" ry="56" fill="#8aaabb" opacity="0.18"/>
  <ellipse cx="798" cy="92" rx="44" ry="20" fill="#c4b88a" stroke="#8b6914" stroke-width="1.5" filter="url(#wobble)"/>
  <ellipse cx="850" cy="67" rx="27" ry="13" fill="#c4b88a" stroke="#8b6914" stroke-width="1" filter="url(#wobble)"/>
  <ellipse cx="752" cy="82" rx="20" ry="10" fill="#c4b88a" stroke="#8b6914" stroke-width="1" filter="url(#wobble)"/>
  <ellipse cx="876" cy="108" rx="15" ry="8" fill="#c4b88a" stroke="#8b6914" stroke-width="0.8" filter="url(#wobble)"/>

  <!-- === DREADSPIRE PEAKS — mountain triangles === -->
  <g fill="#7a8a96" stroke="#4a5a66" stroke-width="0.5" opacity="0.88">
    <polygon points="108,108 94,135 122,135"/>
    <polygon points="140,97 124,126 156,126"/>
    <polygon points="175,88 158,119 192,119"/>
    <polygon points="212,84 194,116 230,116"/>
    <polygon points="250,86 232,116 268,116"/>
    <polygon points="98,133 87,155 109,155" opacity="0.62"/>
    <polygon points="130,124 119,146 141,146" opacity="0.62"/>
    <polygon points="162,116 151,138 173,138" opacity="0.62"/>
    <polygon points="196,112 185,134 207,134" opacity="0.62"/>
    <polygon points="232,110 221,132 243,132" opacity="0.62"/>
    <polygon points="265,112 254,132 276,132" opacity="0.55"/>
    <polygon points="115,153 106,170 124,170" opacity="0.44"/>
    <polygon points="150,143 141,160 159,160" opacity="0.44"/>
    <polygon points="185,136 176,153 194,153" opacity="0.44"/>
    <polygon points="220,130 211,148 229,148" opacity="0.44"/>
    <polygon points="255,127 246,145 264,145" opacity="0.44"/>
    <polygon points="95,175 84,198 106,198" opacity="0.46"/>
    <polygon points="128,168 117,192 139,192" opacity="0.46"/>
    <polygon points="162,163 151,187 173,187" opacity="0.46"/>
    <polygon points="196,158 185,182 207,182" opacity="0.46"/>
    <polygon points="232,155 221,179 243,179" opacity="0.46"/>
    <polygon points="265,155 254,178 276,178" opacity="0.40"/>
    <polygon points="78,210 68,230 88,230" opacity="0.38"/>
    <polygon points="108,205 98,226 118,226" opacity="0.38"/>
    <polygon points="138,200 128,222 148,222" opacity="0.38"/>
    <polygon points="168,196 158,218 178,218" opacity="0.38"/>
    <polygon points="200,192 190,214 210,214" opacity="0.38"/>
    <polygon points="235,190 225,212 245,212" opacity="0.35"/>
    <polygon points="268,190 258,212 278,212" opacity="0.32"/>
  </g>
  <!-- Snow caps on tallest peaks -->
  <g fill="#eef4f8" opacity="0.80">
    <polygon points="140,97 133,110 147,110"/>
    <polygon points="175,88 168,103 182,103"/>
    <polygon points="212,84 205,100 219,100"/>
    <polygon points="250,86 243,101 257,101"/>
  </g>

  <!-- === VEILWOOD — forest circles === -->
  <g fill="#1e4a1e" opacity="0.48">
    <circle cx="295" cy="115" r="13"/><circle cx="322" cy="108" r="12"/><circle cx="350" cy="112" r="13"/>
    <circle cx="378" cy="106" r="12"/><circle cx="406" cy="110" r="13"/><circle cx="434" cy="108" r="12"/>
    <circle cx="462" cy="112" r="13"/><circle cx="490" cy="108" r="12"/><circle cx="518" cy="112" r="13"/>
    <circle cx="546" cy="106" r="12"/><circle cx="574" cy="110" r="11"/>
    <circle cx="285" cy="145" r="13"/><circle cx="312" cy="138" r="13"/><circle cx="340" cy="142" r="14"/>
    <circle cx="368" cy="136" r="13"/><circle cx="396" cy="140" r="14"/><circle cx="424" cy="136" r="13"/>
    <circle cx="452" cy="140" r="14"/><circle cx="480" cy="136" r="13"/><circle cx="508" cy="140" r="14"/>
    <circle cx="536" cy="136" r="13"/><circle cx="562" cy="138" r="12"/><circle cx="590" cy="135" r="11"/>
    <circle cx="288" cy="172" r="13"/><circle cx="316" cy="165" r="14"/><circle cx="345" cy="170" r="13"/>
    <circle cx="374" cy="164" r="14"/><circle cx="403" cy="168" r="14"/><circle cx="432" cy="164" r="13"/>
    <circle cx="460" cy="168" r="14"/><circle cx="488" cy="163" r="13"/><circle cx="516" cy="167" r="14"/>
    <circle cx="544" cy="163" r="13"/><circle cx="570" cy="165" r="12"/><circle cx="596" cy="162" r="11"/>
    <circle cx="292" cy="200" r="14"/><circle cx="322" cy="193" r="14"/><circle cx="352" cy="198" r="14"/>
    <circle cx="382" cy="192" r="14"/><circle cx="412" cy="196" r="14"/><circle cx="442" cy="192" r="13"/>
    <circle cx="470" cy="196" r="14"/><circle cx="498" cy="191" r="13"/><circle cx="525" cy="195" r="14"/>
    <circle cx="552" cy="190" r="13"/><circle cx="578" cy="193" r="12"/><circle cx="604" cy="190" r="11"/>
    <circle cx="296" cy="228" r="14"/><circle cx="326" cy="222" r="14"/><circle cx="356" cy="226" r="14"/>
    <circle cx="386" cy="220" r="14"/><circle cx="416" cy="224" r="14"/><circle cx="445" cy="219" r="13"/>
    <circle cx="473" cy="223" r="14"/><circle cx="501" cy="218" r="13"/><circle cx="528" cy="222" r="14"/>
    <circle cx="555" cy="217" r="13"/><circle cx="581" cy="220" r="12"/><circle cx="607" cy="218" r="11"/>
    <circle cx="300" cy="256" r="13"/><circle cx="330" cy="250" r="14"/><circle cx="360" cy="254" r="13"/>
    <circle cx="390" cy="248" r="14"/><circle cx="420" cy="252" r="13"/><circle cx="448" cy="247" r="13"/>
    <circle cx="476" cy="251" r="13"/><circle cx="503" cy="246" r="13"/><circle cx="530" cy="250" r="13"/>
    <circle cx="557" cy="245" r="12"/><circle cx="582" cy="248" r="12"/>
    <circle cx="304" cy="284" r="12"/><circle cx="334" cy="278" r="13"/><circle cx="364" cy="282" r="12"/>
    <circle cx="394" cy="276" r="13"/><circle cx="422" cy="280" r="12"/><circle cx="450" cy="275" r="12"/>
    <circle cx="477" cy="279" r="12"/><circle cx="504" cy="274" r="12"/><circle cx="530" cy="278" r="12"/>
    <circle cx="556" cy="273" r="11"/><circle cx="580" cy="276" r="11"/>
    <circle cx="308" cy="308" r="11"/><circle cx="338" cy="303" r="12"/><circle cx="368" cy="307" r="11"/>
    <circle cx="398" cy="302" r="12"/><circle cx="426" cy="306" r="11"/><circle cx="454" cy="301" r="11"/>
    <circle cx="480" cy="305" r="11"/><circle cx="506" cy="300" r="11"/><circle cx="532" cy="304" r="11"/>
    <circle cx="558" cy="300" r="10"/>
  </g>
  <!-- Veilwood canopy highlights -->
  <g fill="#2a6a2a" opacity="0.28">
    <circle cx="350" cy="142" r="8"/><circle cx="430" cy="136" r="7"/><circle cx="510" cy="140" r="8"/>
    <circle cx="370" cy="165" r="8"/><circle cx="450" cy="163" r="7"/><circle cx="530" cy="167" r="8"/>
    <circle cx="325" cy="193" r="7"/><circle cx="412" cy="196" r="8"/><circle cx="498" cy="191" r="7"/>
    <circle cx="340" cy="226" r="7"/><circle cx="416" cy="219" r="8"/><circle cx="498" cy="222" r="7"/>
    <circle cx="360" cy="254" r="7"/><circle cx="448" cy="247" r="8"/><circle cx="530" cy="250" r="7"/>
  </g>

  <!-- === ASHEN MARCHES — void dust circles === -->
  <g fill="#787068" opacity="0.20">
    <circle cx="100" cy="430" r="55"/><circle cx="145" cy="490" r="65"/><circle cx="188" cy="452" r="50"/>
    <circle cx="122" cy="375" r="38"/><circle cx="210" cy="520" r="55"/><circle cx="158" cy="560" r="45"/>
    <circle cx="240" cy="478" r="38"/><circle cx="88"  cy="500" r="42"/><circle cx="178" cy="590" r="35"/>
    <circle cx="258" cy="540" r="30"/><circle cx="118" cy="540" r="38"/>
  </g>
  <!-- Hollow's Eye — void center -->
  <circle cx="100" cy="480" r="22" fill="#b8a898" opacity="0.35"/>
  <circle cx="100" cy="480" r="14" fill="#c8b8a8" opacity="0.28"/>

  <!-- === RIVERS === -->
  <g fill="none" stroke="#4a6a8a" stroke-width="1.8" opacity="0.52" stroke-linecap="round">
    <!-- Main Aranthor river south to Sapphire Coast -->
    <path d="M 490,360 C 494,405 498,448 494,495 C 490,535 488,565 492,605 C 494,628 498,648 496,665"/>
    <!-- Western river along Ashen/Aranthor border -->
    <path d="M 312,365 C 308,415 304,462 300,512 C 297,550 294,578 296,615"/>
    <!-- Dreadspire meltwater streams -->
    <path d="M 244,245 C 252,278 260,308 265,330"/>
    <path d="M 196,260 C 204,292 210,322 214,365"/>
    <!-- Veilwood stream -->
    <path d="M 424,322 C 436,355 442,380 448,415"/>
    <!-- Darian river -->
    <path d="M 820,310 C 800,355 785,390 778,435"/>
  </g>

  <!-- === ROADS === -->
  <g fill="none" stroke="#9a7824" stroke-width="1.4" opacity="0.44" stroke-dasharray="7,5">
    <!-- King's Highway: Vaelthorn → Dunmore → Lighthaven -->
    <path d="M 450,380 C 468,402 488,422 500,448 C 512,465 545,472 575,476"/>
    <!-- King's Road north toward Veilwood border -->
    <path d="M 450,380 C 442,352 432,320 424,295"/>
    <!-- Eastern Road: Vaelthorn → Darian border -->
    <path d="M 450,380 C 508,372 558,362 608,350 C 634,344 648,342 660,338"/>
    <!-- Darian main road: Ironwatch → Caldrath -->
    <path d="M 640,340 C 680,358 730,370 778,380"/>
    <!-- Southern Road: Vaelthorn → Sapphire Coast -->
    <path d="M 450,380 C 455,432 462,482 466,535 C 470,578 476,628 480,658"/>
    <!-- Fort Ashveil road -->
    <path d="M 350,500 C 388,468 420,445 450,380" stroke-dasharray="5,6"/>
  </g>

  <!-- === REGION LABELS === -->
  <g font-family="Georgia, 'Times New Roman', serif" fill="#2a1a08" letter-spacing="2">
    <!-- DREADSPIRE PEAKS -->
    <text x="172" y="244" text-anchor="middle" font-size="10" font-style="italic" font-weight="bold" opacity="0.68" transform="rotate(-8,172,244)">DREADSPIRE</text>
    <text x="172" y="258" text-anchor="middle" font-size="10" font-style="italic" font-weight="bold" opacity="0.68" transform="rotate(-8,172,258)">PEAKS</text>

    <!-- THE VEILWOOD -->
    <text x="440" y="202" text-anchor="middle" font-size="12" font-style="italic" font-weight="bold" opacity="0.50" fill="#1a3a1a">THE VEILWOOD</text>

    <!-- ASHEN MARCHES -->
    <text x="178" y="464" text-anchor="middle" font-size="10" font-style="italic" font-weight="bold" opacity="0.65" transform="rotate(-5,178,464)">ASHEN</text>
    <text x="178" y="478" text-anchor="middle" font-size="10" font-style="italic" font-weight="bold" opacity="0.65" transform="rotate(-5,178,478)">MARCHES</text>

    <!-- ARANTHOR -->
    <text x="462" y="448" text-anchor="middle" font-size="15" font-style="italic" font-weight="bold" opacity="0.50">ARANTHOR</text>

    <!-- DARIAN EMPIRE -->
    <text x="775" y="388" text-anchor="middle" font-size="11" font-style="italic" font-weight="bold" opacity="0.54" fill="#1a2a3a">DARIAN</text>
    <text x="775" y="403" text-anchor="middle" font-size="11" font-style="italic" font-weight="bold" opacity="0.54" fill="#1a2a3a">EMPIRE</text>

    <!-- SAPPHIRE COAST -->
    <text x="448" y="648" text-anchor="middle" font-size="10" font-style="italic" opacity="0.62" fill="#0a2a38">SAPPHIRE COAST</text>

    <!-- SHATTERED ISLES -->
    <text x="808" y="125" text-anchor="middle" font-size="8" font-style="italic" opacity="0.62" fill="#2a3a4a">SHATTERED ISLES</text>
  </g>

  <!-- === COMPASS ROSE === -->
  <g transform="translate(910,608)">
    <circle r="28" fill="#f0e8cc" stroke="#8b6914" stroke-width="1.5" opacity="0.90"/>
    <circle r="24" fill="none" stroke="#8b6914" stroke-width="0.5"/>
    <polygon points="0,-24 -4,-10 4,-10" fill="#3d1f00"/>
    <polygon points="0,24 -4,10 4,10" fill="#8b6914"/>
    <polygon points="-24,0 -10,-4 -10,4" fill="#8b6914"/>
    <polygon points="24,0 10,-4 10,4" fill="#8b6914"/>
    <polygon points="0,-24 -2,-16 0,-20 2,-16" fill="#cc0000"/>
    <circle r="3.5" fill="#3d1f00"/>
    <circle r="2" fill="#f5d56e"/>
    <text x="0" y="-29" text-anchor="middle" font-size="8" font-weight="bold" fill="#3d1f00" font-family="Georgia,serif">N</text>
    <text x="0" y="38" text-anchor="middle" font-size="7" fill="#3d1f00" font-family="Georgia,serif">S</text>
    <text x="-34" y="3" text-anchor="middle" font-size="7" fill="#3d1f00" font-family="Georgia,serif">W</text>
    <text x="34" y="3" text-anchor="middle" font-size="7" fill="#3d1f00" font-family="Georgia,serif">E</text>
  </g>

  <!-- === SCALE BAR === -->
  <g transform="translate(28,668)">
    <rect x="0" y="0" width="80" height="7" fill="#3d1f00" opacity="0.70"/>
    <rect x="0" y="0" width="40" height="7" fill="#f0e8cc" opacity="0.70"/>
    <text x="40" y="17" text-anchor="middle" font-size="7" fill="#3d1f00" font-family="Georgia,serif">50 leagues</text>
  </g>

  <!-- === TITLE CARTOUCHE === -->
  <g transform="translate(82,28)">
    <rect x="-62" y="-18" width="200" height="44" rx="4" fill="#f0e8cc" stroke="#8b6914" stroke-width="1.5" opacity="0.92"/>
    <text x="38" y="-1" text-anchor="middle" font-size="15" font-weight="bold" fill="#3d1f00" font-family="Georgia,'Times New Roman',serif" letter-spacing="2">AELORIA</text>
    <text x="38" y="16" text-anchor="middle" font-size="8" fill="#5a3a1a" font-family="Georgia,serif" font-style="italic">9 months to Darkgate</text>
  </g>

  <!-- === LEGEND === -->
  <g transform="translate(820,390)" font-family="Georgia,serif" font-size="7.5" fill="#1a0a00">
    <rect x="-4" y="-14" width="128" height="122" rx="3" fill="#f0e8cc" stroke="#8b6914" stroke-width="1" opacity="0.90"/>
    <text x="58" y="0" text-anchor="middle" font-size="8" font-weight="bold">LEGEND</text>
    <rect x="2" y="8"  width="12" height="8" fill="#ddeaf5" stroke="#8b6914" stroke-width="0.5"/>
    <text x="19" y="17">Dreadspire Peaks</text>
    <rect x="2" y="22" width="12" height="8" fill="#3a6a3a" stroke="#8b6914" stroke-width="0.5" opacity="0.75"/>
    <text x="19" y="31">Veilwood</text>
    <rect x="2" y="36" width="12" height="8" fill="#9a9088" stroke="#8b6914" stroke-width="0.5" opacity="0.75"/>
    <text x="19" y="45">Ashen Marches</text>
    <rect x="2" y="50" width="12" height="8" fill="#ccc088" stroke="#8b6914" stroke-width="0.5" opacity="0.75"/>
    <text x="19" y="59">Aranthor</text>
    <rect x="2" y="64" width="12" height="8" fill="#8898aa" stroke="#8b6914" stroke-width="0.5" opacity="0.75"/>
    <text x="19" y="73">Darian Empire</text>
    <rect x="2" y="78" width="12" height="8" fill="#4a8898" stroke="#8b6914" stroke-width="0.5" opacity="0.75"/>
    <text x="19" y="87">Sapphire Coast</text>
    <rect x="2" y="92" width="12" height="8" fill="#c4b88a" stroke="#8b6914" stroke-width="0.5" opacity="0.75"/>
    <text x="19" y="101">Shattered Isles</text>
  </g>

  <!-- === VIGNETTE === -->
  <rect width="1000" height="700" fill="url(#vignette)"/>

  <!-- === BORDER === -->
  <rect x="4" y="4" width="992" height="692" rx="6" fill="none" stroke="#8b6914" stroke-width="3" opacity="0.6"/>
  <rect x="8" y="8" width="984" height="684" rx="4" fill="none" stroke="#8b6914" stroke-width="1" opacity="0.4"/>
</svg>
